<mxfile host="app.diagrams.net" agent="Mozilla/5.0 (Windows NT 10.0; Win64; x64) AppleWebKit/537.36 (KHTML, like Gecko) Chrome/138.0.0.0 Safari/537.36 Edg/138.0.0.0" version="28.0.7">
  <diagram name="AUTOSAR Chatbot Architecture" id="0">
    <mxGraphModel dx="2396" dy="1958" grid="1" gridSize="10" guides="1" tooltips="1" connect="1" arrows="1" fold="1" page="1" pageScale="1" pageWidth="850" pageHeight="1100" math="0" shadow="0">
      <root>
        <mxCell id="0" />
        <mxCell id="1" parent="0" />
        <mxCell id="2" value="&lt;font style=&quot;font-size: 15px;&quot;&gt;👤 User&lt;/font&gt;&lt;div&gt;&lt;span style=&quot;font-size: 15px;&quot;&gt;&lt;br&gt;&lt;/span&gt;&lt;div&gt;Represents the engineer interacting with the chatbot.&lt;/div&gt;&lt;/div&gt;" style="rounded=1;whiteSpace=wrap;html=1;fillColor=#dae8fc;strokeColor=#6c8ebf;" parent="1" vertex="1">
          <mxGeometry x="-30" y="-20" width="210" height="110" as="geometry" />
        </mxCell>
        <mxCell id="3" value="&lt;font style=&quot;font-size: 15px;&quot;&gt;💬 User Interface (Web/CLI)&lt;/font&gt;&lt;div&gt;&lt;br&gt;&lt;/div&gt;&lt;div&gt;Captures user queries and displays chatbot responses.&lt;/div&gt;" style="rounded=1;whiteSpace=wrap;html=1;fillColor=#d5e8d4;strokeColor=#82b366;" parent="1" vertex="1">
          <mxGeometry x="260" y="-20" width="230" height="110" as="geometry" />
        </mxCell>
        <mxCell id="15" value="&lt;font style=&quot;font-size: 15px;&quot;&gt;🧾 Query Handler&lt;/font&gt;&lt;div&gt;&lt;span style=&quot;font-size: 15px;&quot;&gt;&lt;br&gt;&lt;/span&gt;&lt;div&gt;Routes user queries to preprocessing and retrieval systems.&lt;/div&gt;&lt;/div&gt;" style="rounded=1;whiteSpace=wrap;html=1;fillColor=#e1d5e7;strokeColor=#9673a6;" parent="1" vertex="1">
          <mxGeometry x="580" y="-20" width="240" height="110" as="geometry" />
        </mxCell>
        <mxCell id="4" value="&lt;font style=&quot;font-size: 15px;&quot;&gt;⚙️ Query Preprocessing&lt;/font&gt;&lt;div&gt;&lt;span style=&quot;font-size: 15px;&quot;&gt;&lt;br&gt;&lt;/span&gt;&lt;div&gt;Normalizes, cleans, and interprets user queries.&lt;/div&gt;&lt;/div&gt;" style="rounded=1;whiteSpace=wrap;html=1;fillColor=#fff2cc;strokeColor=#d6b656;" parent="1" vertex="1">
          <mxGeometry x="580" y="125.43" width="230" height="110" as="geometry" />
        </mxCell>
        <mxCell id="Dr9toqBPjFzPg8i3gah5-15" style="edgeStyle=orthogonalEdgeStyle;rounded=0;orthogonalLoop=1;jettySize=auto;html=1;exitX=0.5;exitY=1;exitDx=0;exitDy=0;entryX=0.5;entryY=0;entryDx=0;entryDy=0;" parent="1" source="5" target="6" edge="1">
          <mxGeometry relative="1" as="geometry" />
        </mxCell>
        <mxCell id="5" value="&lt;font style=&quot;font-size: 15px;&quot;&gt;📄 PDF Parser + Extractor&lt;/font&gt;&lt;div&gt;&lt;span style=&quot;font-size: 15px;&quot;&gt;&lt;br&gt;&lt;/span&gt;&lt;div&gt;Parses AUTOSAR specs and extracts structured data.&lt;/div&gt;&lt;/div&gt;" style="rounded=1;whiteSpace=wrap;html=1;fillColor=#f8cecc;strokeColor=#b85450;" parent="1" vertex="1">
          <mxGeometry x="1000" y="-10" width="210" height="90" as="geometry" />
        </mxCell>
        <mxCell id="0oruasGBWZNhL7xd3HBt-16" style="edgeStyle=orthogonalEdgeStyle;rounded=0;orthogonalLoop=1;jettySize=auto;html=1;exitX=1;exitY=0.5;exitDx=0;exitDy=0;entryX=1;entryY=0.5;entryDx=0;entryDy=0;" parent="1" source="6" target="11" edge="1">
          <mxGeometry relative="1" as="geometry">
            <Array as="points">
              <mxPoint x="1240" y="130" />
              <mxPoint x="1240" y="420" />
            </Array>
          </mxGeometry>
        </mxCell>
        <mxCell id="6" value="&lt;font style=&quot;font-size: 15px;&quot;&gt;🧹 Data Cleaning and Structuring&lt;/font&gt;&lt;div&gt;&lt;span style=&quot;font-size: 15px;&quot;&gt;&lt;br&gt;&lt;/span&gt;&lt;div&gt;Removes noise, formats as {prompt: answer}.&lt;/div&gt;&lt;/div&gt;" style="rounded=1;whiteSpace=wrap;html=1;fillColor=#f8cecc;strokeColor=#b85450;" parent="1" vertex="1">
          <mxGeometry x="1000" y="90" width="210" height="90" as="geometry" />
        </mxCell>
        <mxCell id="Fmv460e71PN2H9Mh005n-17" style="edgeStyle=orthogonalEdgeStyle;rounded=0;orthogonalLoop=1;jettySize=auto;html=1;exitX=1;exitY=0.75;exitDx=0;exitDy=0;entryX=0;entryY=0.5;entryDx=0;entryDy=0;" edge="1" parent="1" source="7" target="9">
          <mxGeometry relative="1" as="geometry">
            <Array as="points">
              <mxPoint x="450" y="325" />
            </Array>
          </mxGeometry>
        </mxCell>
        <mxCell id="7" value="&lt;font style=&quot;font-size: 15px;&quot;&gt;🔍 Hybrid Retrieval Module&lt;/font&gt;&lt;div&gt;&lt;span style=&quot;font-size: 15px;&quot;&gt;&lt;br&gt;&lt;/span&gt;&lt;div&gt;Combines keyword and semantic search to retrieve relevant documents.&lt;/div&gt;&lt;/div&gt;" style="rounded=1;whiteSpace=wrap;html=1;fillColor=#dae8fc;strokeColor=#6c8ebf;" parent="1" vertex="1">
          <mxGeometry x="250" y="140" width="200" height="100" as="geometry" />
        </mxCell>
        <mxCell id="8" value="&lt;font style=&quot;font-size: 15px;&quot;&gt;🔎 Keyword Search (ElasticSearch)&lt;/font&gt;&lt;div&gt;&lt;span style=&quot;font-size: 15px;&quot;&gt;&lt;br&gt;&lt;/span&gt;&lt;div&gt;Performs traditional keyword-based search on indexed data.&lt;/div&gt;&lt;/div&gt;" style="rounded=1;whiteSpace=wrap;html=1;fillColor=#e1d5e7;strokeColor=#9673a6;" parent="1" vertex="1">
          <mxGeometry x="1000" y="190" width="210" height="80" as="geometry" />
        </mxCell>
        <mxCell id="9" value="&lt;font style=&quot;font-size: 15px;&quot;&gt;🧠 Semantic Search (ChromaDB/FAISS + Transformers)&lt;/font&gt;&lt;div&gt;Retrieves data based on meaning using embeddings.&lt;/div&gt;" style="rounded=1;whiteSpace=wrap;html=1;fillColor=#e1d5e7;strokeColor=#9673a6;" parent="1" vertex="1">
          <mxGeometry x="1000" y="280" width="210" height="90" as="geometry" />
        </mxCell>
        <mxCell id="10" value="&lt;font style=&quot;font-size: 15px;&quot;&gt;🧩 Context Augmentation and Prompt&lt;/font&gt;&lt;div&gt;&lt;br&gt;&lt;/div&gt;&lt;div&gt;Combines query and retrieved data into a prompt for LLM.&lt;/div&gt;" style="rounded=1;whiteSpace=wrap;html=1;fillColor=#fff2cc;strokeColor=#d6b656;" parent="1" vertex="1">
          <mxGeometry x="580" y="350" width="230" height="100" as="geometry" />
        </mxCell>
        <mxCell id="11" value="&lt;font style=&quot;font-size: 15px;&quot;&gt;🗂️ Storage Layer&lt;/font&gt;&lt;div&gt;&lt;br&gt;&lt;/div&gt;&lt;div&gt;MongoDB (configs), ChromaDB/FAISS (embeddings).&lt;/div&gt;" style="rounded=1;whiteSpace=wrap;html=1;fillColor=#d5e8d4;strokeColor=#82b366;" parent="1" vertex="1">
          <mxGeometry x="1000" y="380" width="200" height="80" as="geometry" />
        </mxCell>
        <mxCell id="12" value="&lt;font style=&quot;font-size: 15px;&quot;&gt;🤖 Transformer-based LLM Generator&lt;/font&gt;&lt;div&gt;&lt;span style=&quot;font-size: 15px;&quot;&gt;&lt;br&gt;&lt;/span&gt;&lt;div&gt;Generates conversational answers from context.&lt;/div&gt;&lt;/div&gt;" style="rounded=1;whiteSpace=wrap;html=1;fillColor=#dae8fc;strokeColor=#6c8ebf;" parent="1" vertex="1">
          <mxGeometry x="260" y="350" width="230" height="100" as="geometry" />
        </mxCell>
        <mxCell id="13" value="&lt;font style=&quot;font-size: 15px;&quot;&gt;📤 Response Formatter&lt;/font&gt;&lt;div&gt;&lt;span style=&quot;font-size: 15px;&quot;&gt;&lt;br&gt;&lt;/span&gt;&lt;div&gt;Formats the model output for the UI.&lt;/div&gt;&lt;/div&gt;" style="rounded=1;whiteSpace=wrap;html=1;fillColor=#fff2cc;strokeColor=#d6b656;" parent="1" vertex="1">
          <mxGeometry x="-20" y="350" width="210" height="100" as="geometry" />
        </mxCell>
        <mxCell id="14" value="&lt;font style=&quot;font-size: 15px;&quot;&gt;🔁 Continual Learning Module&lt;/font&gt;&lt;div&gt;&lt;span style=&quot;font-size: 15px;&quot;&gt;&lt;br&gt;&lt;/span&gt;&lt;div&gt;Fine-tunes model on user feedback and new data.&lt;/div&gt;&lt;/div&gt;" style="rounded=1;whiteSpace=wrap;html=1;fillColor=#f8cecc;strokeColor=#b85450;" parent="1" vertex="1">
          <mxGeometry x="1000" y="500" width="210" height="90" as="geometry" />
        </mxCell>
        <mxCell id="e1" style="endArrow=block;html=1;rounded=0;" parent="1" source="2" target="3" edge="1">
          <mxGeometry relative="1" as="geometry" />
        </mxCell>
        <mxCell id="e2" style="endArrow=block;html=1;rounded=0;" parent="1" source="3" target="15" edge="1">
          <mxGeometry relative="1" as="geometry" />
        </mxCell>
        <mxCell id="e3" style="endArrow=block;html=1;rounded=0;" parent="1" source="15" target="4" edge="1">
          <mxGeometry relative="1" as="geometry" />
        </mxCell>
        <mxCell id="e4" style="endArrow=block;html=1;rounded=0;" parent="1" target="6" edge="1">
          <mxGeometry relative="1" as="geometry" />
        </mxCell>
        <mxCell id="e5" style="endArrow=block;html=1;rounded=0;" parent="1" source="4" target="7" edge="1">
          <mxGeometry relative="1" as="geometry" />
        </mxCell>
        <mxCell id="e8" style="endArrow=block;html=1;rounded=0;" parent="1" source="8" target="10" edge="1">
          <mxGeometry relative="1" as="geometry" />
        </mxCell>
        <mxCell id="e9" style="endArrow=block;html=1;rounded=0;" parent="1" source="9" target="10" edge="1">
          <mxGeometry relative="1" as="geometry" />
        </mxCell>
        <mxCell id="e10" style="endArrow=block;html=1;rounded=0;" parent="1" source="10" target="12" edge="1">
          <mxGeometry relative="1" as="geometry" />
        </mxCell>
        <mxCell id="e11" style="endArrow=block;html=1;rounded=0;" parent="1" source="12" target="13" edge="1">
          <mxGeometry relative="1" as="geometry" />
        </mxCell>
        <mxCell id="e13" style="endArrow=block;html=1;rounded=0;" parent="1" source="11" target="14" edge="1">
          <mxGeometry relative="1" as="geometry" />
        </mxCell>
        <mxCell id="0oruasGBWZNhL7xd3HBt-18" value="" style="swimlane;startSize=0;" parent="1" vertex="1">
          <mxGeometry x="980" y="-50" width="250" height="530" as="geometry">
            <mxRectangle x="1000" y="190" width="50" height="40" as="alternateBounds" />
          </mxGeometry>
        </mxCell>
        <mxCell id="0oruasGBWZNhL7xd3HBt-19" value="&lt;b&gt;Pre Processing&lt;/b&gt;" style="text;html=1;align=center;verticalAlign=middle;resizable=0;points=[];autosize=1;strokeColor=none;fillColor=none;" parent="0oruasGBWZNhL7xd3HBt-18" vertex="1">
          <mxGeometry x="70" width="110" height="30" as="geometry" />
        </mxCell>
        <mxCell id="Fmv460e71PN2H9Mh005n-16" style="edgeStyle=orthogonalEdgeStyle;rounded=0;orthogonalLoop=1;jettySize=auto;html=1;exitX=1;exitY=0.5;exitDx=0;exitDy=0;entryX=0;entryY=0.625;entryDx=0;entryDy=0;entryPerimeter=0;" edge="1" parent="1" source="7" target="8">
          <mxGeometry relative="1" as="geometry">
            <Array as="points">
              <mxPoint x="450" y="240" />
            </Array>
          </mxGeometry>
        </mxCell>
        <mxCell id="Fmv460e71PN2H9Mh005n-18" value="&lt;span style=&quot;color: rgb(51, 51, 51); font-family: Actor, &amp;quot;VP Default&amp;quot;; font-size: 14px; background-color: rgb(248, 249, 250);&quot;&gt;We extract the text,&lt;/span&gt;&lt;br style=&quot;box-sizing: content-box; -webkit-font-smoothing: antialiased; scrollbar-width: thin; color: rgb(51, 51, 51); font-family: Actor, &amp;quot;VP Default&amp;quot;; font-size: 14px; background-color: rgb(248, 249, 250);&quot;&gt;&lt;span style=&quot;color: rgb(51, 51, 51); font-family: Actor, &amp;quot;VP Default&amp;quot;; font-size: 14px; background-color: rgb(248, 249, 250);&quot;&gt;tables &amp;amp; images from the&amp;nbsp;&lt;/span&gt;&lt;br style=&quot;box-sizing: content-box; -webkit-font-smoothing: antialiased; scrollbar-width: thin; color: rgb(51, 51, 51); font-family: Actor, &amp;quot;VP Default&amp;quot;; font-size: 14px; background-color: rgb(248, 249, 250);&quot;&gt;&lt;span style=&quot;color: rgb(51, 51, 51); font-family: Actor, &amp;quot;VP Default&amp;quot;; font-size: 14px; background-color: rgb(248, 249, 250);&quot;&gt;input document.&lt;/span&gt;" style="text;html=1;align=center;verticalAlign=middle;whiteSpace=wrap;rounded=0;" vertex="1" parent="1">
          <mxGeometry x="1360" y="-20" width="140" height="80" as="geometry" />
        </mxCell>
        <mxCell id="Fmv460e71PN2H9Mh005n-19" value="" style="endArrow=none;dashed=1;html=1;rounded=0;" edge="1" parent="1" source="5">
          <mxGeometry width="50" height="50" relative="1" as="geometry">
            <mxPoint x="1310" y="70" as="sourcePoint" />
            <mxPoint x="1360" y="20" as="targetPoint" />
          </mxGeometry>
        </mxCell>
        <mxCell id="Fmv460e71PN2H9Mh005n-21" value="&lt;span style=&quot;font-family: Actor; font-size: 14px;&quot;&gt;We store the {prompt: answer} and Vector Embeddings in a persistent database.&lt;/span&gt;" style="text;html=1;align=center;verticalAlign=middle;whiteSpace=wrap;rounded=0;" vertex="1" parent="1">
          <mxGeometry x="1310" y="350" width="190" height="90" as="geometry" />
        </mxCell>
        <mxCell id="Fmv460e71PN2H9Mh005n-22" value="" style="endArrow=none;dashed=1;html=1;rounded=0;exitX=1;exitY=0.75;exitDx=0;exitDy=0;entryX=0;entryY=0.5;entryDx=0;entryDy=0;" edge="1" parent="1" source="11" target="Fmv460e71PN2H9Mh005n-21">
          <mxGeometry width="50" height="50" relative="1" as="geometry">
            <mxPoint x="1270" y="440" as="sourcePoint" />
            <mxPoint x="1320" y="390" as="targetPoint" />
          </mxGeometry>
        </mxCell>
        <mxCell id="Fmv460e71PN2H9Mh005n-23" value="&lt;font style=&quot;font-size: 13px;&quot; face=&quot;Actor&quot;&gt;Context from database is retrieved based on the user query and the search mode&lt;/font&gt;" style="text;html=1;align=center;verticalAlign=middle;whiteSpace=wrap;rounded=0;" vertex="1" parent="1">
          <mxGeometry x="590" y="510" width="220" height="43" as="geometry" />
        </mxCell>
        <mxCell id="Fmv460e71PN2H9Mh005n-24" style="edgeStyle=orthogonalEdgeStyle;rounded=0;orthogonalLoop=1;jettySize=auto;html=1;exitX=0.5;exitY=1;exitDx=0;exitDy=0;entryX=0.477;entryY=0.233;entryDx=0;entryDy=0;entryPerimeter=0;endArrow=none;dashed=1;" edge="1" parent="1" source="10" target="Fmv460e71PN2H9Mh005n-23">
          <mxGeometry relative="1" as="geometry" />
        </mxCell>
        <mxCell id="Fmv460e71PN2H9Mh005n-28" value="" style="edgeStyle=orthogonalEdgeStyle;rounded=0;orthogonalLoop=1;jettySize=auto;html=1;endArrow=none;dashed=1;" edge="1" parent="1" source="Fmv460e71PN2H9Mh005n-26" target="12">
          <mxGeometry relative="1" as="geometry" />
        </mxCell>
        <mxCell id="Fmv460e71PN2H9Mh005n-26" value="&lt;font style=&quot;font-size: 14px;&quot; face=&quot;Actor&quot;&gt;Both query and retrieved context are passed to an LLM to generate the response&lt;/font&gt;" style="text;html=1;align=center;verticalAlign=middle;whiteSpace=wrap;rounded=0;" vertex="1" parent="1">
          <mxGeometry x="265" y="528.5" width="220" height="33" as="geometry" />
        </mxCell>
      </root>
    </mxGraphModel>
  </diagram>
</mxfile>
